/* XPM */
static char * cursor001_xpm[] = {
"14 16 2 1",
" 	c None",
".	c #2C85CA",
"              ",
"              ",
".             ",
"...           ",
"......        ",
"........      ",
"..........    ",
"............. ",
"............. ",
"............  ",
".........     ",
".......       ",
"....          ",
".             ",
"              ",
"              "};
